<svg width="15" height="17" viewBox="0 0 15 17" fill="none" xmlns="http://www.w3.org/2000/svg">
<path d="M13.4766 1.99219H10.4883V1.49414C10.4883 0.670272 9.81801 0 8.99414 0H6.00586C5.18199 0 4.51172 0.670272 4.51172 1.49414V1.99219H1.52344C0.699568 1.99219 0.0292969 2.66246 0.0292969 3.48633V4.48242C0.0292969 4.75748 0.252289 4.98047 0.527344 4.98047H1.06467L1.9408 15.6368C1.9409 15.6383 1.94103 15.6397 1.94117 15.6411C2.01162 16.4158 2.65135 17 3.42916 17H11.5708C12.3487 17 12.9883 16.4158 13.0588 15.6411C13.0589 15.6397 13.0591 15.6383 13.0592 15.6368L13.9353 4.98047H14.4727C14.7477 4.98047 14.9707 4.75748 14.9707 4.48242V3.48633C14.9707 2.66246 14.3004 1.99219 13.4766 1.99219ZM5.50781 1.49414C5.50781 1.21952 5.73124 0.996094 6.00586 0.996094H8.99414C9.26876 0.996094 9.49219 1.21952 9.49219 1.49414V1.99219H5.50781V1.49414ZM12.0667 15.5526C12.0425 15.81 11.8295 16.0039 11.5708 16.0039H3.42916C3.17045 16.0039 2.95755 15.81 2.93331 15.5526L2.06412 4.98047H12.9359L12.0667 15.5526ZM13.9746 3.98438H13.4766H1.52344H1.02539V3.48633C1.02539 3.2117 1.24881 2.98828 1.52344 2.98828H5.00977H9.99023H13.4766C13.7512 2.98828 13.9746 3.2117 13.9746 3.48633V3.98438Z" fill="#F37500"/>
<path d="M7.5 7C7.22495 7 7.00195 7.22299 7.00195 7.49805V14.5371C7.00195 14.8122 7.22495 15.0352 7.5 15.0352C7.77505 15.0352 7.99805 14.8122 7.99805 14.5371V7.49805C7.99805 7.22299 7.77505 7 7.5 7Z" fill="#F37500"/>
<path d="M10.498 6C10.223 6 10 6.22299 10 6.49805V13.5371C10 13.8122 10.223 14.0352 10.498 14.0352C10.7731 14.0352 10.9961 13.8122 10.9961 13.5371V6.49805C10.9961 6.22299 10.7731 6 10.498 6Z" fill="#F37500"/>
<path d="M4.49805 6C4.22299 6 4 6.22299 4 6.49805V13.5371C4 13.8122 4.22299 14.0352 4.49805 14.0352C4.7731 14.0352 4.99609 13.8122 4.99609 13.5371V6.49805C4.99609 6.22299 4.7731 6 4.49805 6Z" fill="#F37500"/>
</svg>